<svg version="1" xmlns="http://www.w3.org/2000/svg" width="1018.667" height="1018.667" viewBox="0 0 764.000000 764.000000"><path d="M440 1.7c-5.8.7-14.8 2.5-19.5 4-19.5 6.1-40.5 21.9-53.4 40.2-2.2 3-2.5 3.2-3.1 1.5-1.9-5.4 2.5-20.5 10.1-35l3.8-7.2-5.8 1.3c-29 6.8-50.5 26.1-59.1 53-1.8 5.7-2.2 6.1-3.2 3.4-1.8-4.8-2.3-10.6-2.3-26.7V20l-3.2 3.4C294.1 34.1 283 54 278.9 68.5c-3.1 11-3.1 29.4-.1 41 2.2 8.3 10.8 26.6 14.2 30.3 1.1 1.2 2 2.4 2 2.8 0 .4-3.3 4.6-7.3 9.3-22.3 26.3-40.6 54-50.1 75.6-2.5 5.8-4.6 11.2-4.6 12 0 2.1-1.1 2.5-11.2 4-5.1.8-10.2 1.7-11.3 1.9-1.1.3-4 1-6.5 1.6-16.7 3.9-37.6 13.8-49.8 23.6-14 11.2-22 22-30.5 41.4-2.5 5.8-6.5 21-5.3 20.3.6-.4 4.5-3.1 8.6-6.1 11.7-8.4 11.7-8.4 26-9.8 18.6-1.8 49.7-.1 52.7 3 .5.4-6.5 14.5-7.8 15.6-.3.3-2.1 2.7-3.9 5.5-5.8 8.4-19.8 21.7-34.1 32.3-15.4 11.4-22.6 18.7-27.2 27.6-2.9 5.6-3.1 6.9-3.2 15.6 0 8.8.2 9.9 3 14.5 3.5 5.9 8.6 11.7 11.9 13.5 1.3.7 3.2 2.9 4.1 5 1 2.1 3.2 5.4 5.1 7.4 7.8 8.3 17.2 11.5 32 11.1 10.1-.3 13.8-.9 20.7-3.1 6.9-2.3 6.7-1.2-.4 1.6-3.6 1.4-5.8 2.8-5.5 3.5.2.7-.1 1.8-.7 2.4-.7.7-.7 1.1-.1 1.1s1 1.2.9 2.7c0 1.6.2 5.3.6 8.3.4 3 1.1 8 1.4 11 .4 3 .8 5.7 1 6 .2.3.6 2.7.9 5.5.4 2.7.9 5.7 1.1 6.5.2.8.7 3.1 1 5 .5 2.8 3 15.1 5 24.2 3.2 14.7 14.1 50.5 18 59.3.8 1.6 3 7 5.1 12 15.9 39.1 39.1 70.1 69.1 92.3 3.5 2.5 6.2 4.7 6 4.8-.2.2-4.3.7-15.2 2-6.5.7-12 1.5-21.7 3-25.7 3.9-45.3 10.4-49.4 16.3-2.6 3.7.2 8.3 7.1 11.5 8.6 4 24.5 8.2 39.5 10.6 4.1.6 8.6 1.3 10 1.6 12.1 1.9 38.4 4.6 57 5.9 42.1 2.7 123.7 2.7 161 0 2.5-.2 8.7-.6 13.9-1 5.1-.4 10.1-.8 11-1 .9-.1 5.2-.6 9.6-1 4.4-.4 8.9-.9 10-1.1 1.1-.1 5.8-.8 10.5-1.4 28.5-3.8 52.2-10.5 58.3-16.6 5-4.9 2.9-8.5-7.7-13.5-6-2.8-25.1-8-35.1-9.5-2.7-.5-5.2-.9-5.5-.9-.3-.1-3.2-.5-6.5-1-3.3-.4-6.7-.9-7.5-1.1-.8-.1-2.1-.3-2.8-.3-.7-.1 2.5-2.6 7-5.7 35.8-24.4 65.2-60.7 77.6-95.9 4.7-13.4 11.2-41.5 12.8-55.8.3-2.9.7-6.6 1-8.2.4-3.3 1.3-14 2-22.5.4-6.3.4-44-.1-51.5-.4-6.8-1.6-20.3-2.1-24-.2-1.7-.6-5.5-1-8.5-.3-3-.8-5.7-.9-6-.2-.3-.7-3.3-1-6.5-.4-3.3-.9-6.3-1.1-6.6-.2-.3-.6-2.1-.9-4-4-24.6-17.8-71.7-26.9-92.4-.7-1.7-2.8-6.6-4.7-11-6.2-14.7-24-49.5-32.4-63.3-.6-1-2.3-4-4-6.7-6.6-11.2-30.7-45.4-35.8-50.7-.7-.7-3.7-4.2-6.7-7.7-3-3.6-9.5-10.4-14.3-15.2l-8.8-8.8 3.7-3.8c12-12.5 20.9-29.6 24.9-47.8 2.5-11.3 4.2-24.5 3.1-24.5-.4 0-1.5.8-2.6 1.7-3.2 3.1-13 8.6-18.4 10.4-5.1 1.8-16.9 2-20.9.4-1.5-.6-1.3-1.2 2.2-4.5 5.1-4.9 10.2-12.8 13.1-20.5 2.7-7.1 3.6-24.8 1.8-35.3l-1.1-6.3-6.1 5.8c-14.3 13.8-29.5 20.1-52.6 21.9l-8 .6v-2.6c0-6.3 7.4-19.4 22.1-39.3C475 7.7 476.6 5 475.2 4.6c-6.6-2-27.5-3.7-35.2-2.9zm-177.9 315c1.3 1.6 1.2 1.7-.3.4-1.7-1.3-2.2-2.1-1.4-2.1.2 0 1 .8 1.7 1.7zm-14.4 19.8c0 .8-.4 1.2-.9.9-.5-.3-.6-1-.3-1.5.9-1.3 1.2-1.1 1.2.6zm7.2 19.5c0 .9-.4.8-.9-.5-.5-1.1-.9-2.7-.9-3.5 0-.9.4-.8.9.5.5 1.1.9 2.7.9 3.5zm2.5 18l.5 8.5-.8-7.1c-.5-3.9-1.1-9-1.5-11.5-.5-3.8-.4-4 .4-1.4.6 1.6 1.2 6.8 1.4 11.5zm1.1 11.5c-.4 3.7-1.2 4-1.2.5 0-1.7.4-3 .8-3s.6 1.1.4 2.5zm-39.5 176c0 .5-.5.3-1-.5s-1-2-1-2.5c0-.6.5-.3 1 .5s1 1.9 1 2.5zm1.8 7.5c0 .9-.3.7-.8-.5-.5-1.1-.8-2.9-.8-4 0-1.6.2-1.5.8.5.4 1.4.8 3.2.8 4zm2.1 7c0 .9-.4.8-.9-.5-.5-1.1-.9-2.7-.9-3.5 0-.9.4-.8.9.5.5 1.1.9 2.7.9 3.5zm1.6 4c.3.5.1 1-.4 1-.6 0-1.1-.5-1.1-1 0-.6.2-1 .4-1 .3 0 .8.4 1.1 1z"/></svg>