<?xml version="1.0" encoding="UTF-8"?>
<svg width="31px" height="32px" viewBox="0 0 31 32" version="1.1" xmlns="http://www.w3.org/2000/svg" xmlns:xlink="http://www.w3.org/1999/xlink">
    <!-- Generator: Sketch 52.6 (67491) - http://www.bohemiancoding.com/sketch -->
    <title>Path</title>
    <desc>Created with Sketch.</desc>
    <g id="Page-2" stroke="none" stroke-width="1" fill="none" fill-rule="evenodd">
        <g id="order-flow" transform="translate(-606.000000, -490.000000)" fill="#888888" fill-rule="nonzero">
            <path id="Path" d="M608.132807,515.512017 L610.395507,522.420958 C610.481452,522.683385 610.338386,522.965797 610.075959,523.051743 C609.813532,523.137689 609.53112,522.994622 609.445174,522.732195 L606.5884,514.009303 C606.467049,513.63877 606.79765,513.27809 607.177323,513.366797 L616.115389,515.455092 C616.38429,515.517918 616.551346,515.786835 616.48852,516.055736 C616.425694,516.324636 616.156776,516.491693 615.887876,516.428867 L608.808506,514.774839 L613.225699,518.823652 C615.294919,519.919122 617.605009,520.5 620,520.5 C620.732637,520.5 621.458281,520.445706 622.172958,520.338338 C622.446036,520.297313 622.700667,520.485429 622.741692,520.758506 C622.782717,521.031584 622.594601,521.286215 622.321524,521.32724 C621.557711,521.44199 620.782408,521.5 620,521.5 C617.418127,521.5 614.926372,520.867663 612.698849,519.676061 L612.596847,519.603769 L608.132807,515.512017 Z M625.345413,520.553454 C625.086211,520.648686 624.798886,520.515762 624.703654,520.25656 C624.608422,519.997359 624.741345,519.710034 625.000547,519.614801 C630.2688,517.679217 633.995355,512.835802 634.45228,507.185272 C634.474537,506.910028 634.71571,506.704941 634.990954,506.727199 C635.266197,506.749456 635.471284,506.990629 635.449026,507.265873 C634.96048,513.307451 630.977443,518.484216 625.345413,520.553454 Z M635.385034,504.103069 C635.418493,504.377177 635.223409,504.626509 634.949301,504.659968 C634.675193,504.693427 634.425861,504.498342 634.392402,504.224235 C633.707145,498.610379 629.788209,493.910643 624.440036,492.192276 C624.177131,492.107804 624.032482,491.8262 624.116953,491.563295 C624.201425,491.300389 624.483029,491.15574 624.745934,491.240212 C630.463872,493.077384 634.652306,498.100311 635.385034,504.103069 Z M621.652062,490.587046 C621.926666,490.616152 622.125682,490.862357 622.096576,491.136961 C622.067471,491.411566 621.821265,491.610582 621.546661,491.581476 C621.044191,491.528219 620.537047,491.500938 620.027444,491.500025 C614.914603,491.500001 610.279111,494.139467 607.652555,498.393995 C607.507493,498.628967 607.199416,498.701854 606.964444,498.556793 C606.729472,498.411732 606.656585,498.103654 606.801646,497.868682 C609.608643,493.321874 614.564485,490.5 620.028342,490.500025 C620.573464,490.501002 621.115191,490.530142 621.652062,490.587046 Z"></path>
        </g>
    </g>
</svg>