<?xml version="1.0" encoding="UTF-8"?>
<svg width="68px" height="68px" viewBox="0 0 68 68" version="1.1" xmlns="http://www.w3.org/2000/svg" xmlns:xlink="http://www.w3.org/1999/xlink">
    <!-- Generator: Sketch 52.6 (67491) - http://www.bohemiancoding.com/sketch -->
    <title>Group 2</title>
    <desc>Created with Sketch.</desc>
    <g id="Page-2" stroke="none" stroke-width="1" fill="none" fill-rule="evenodd">
        <g id="order-flow" transform="translate(-361.000000, -464.000000)">
            <g id="Group-2" transform="translate(361.000000, 464.000000)">
                <circle id="Oval" fill="#377E22" cx="34" cy="34" r="34"></circle>
                <path d="M27.250394,35.3318142 C26.5243715,36.3420529 25.3390216,37 24,37 C21.790861,37 20,35.209139 20,33 C20,30.790861 21.790861,29 24,29 C25.1204706,29 26.1333392,29.4606984 26.8595163,30.2030054 L37.1928112,24.2304241 C37.0676279,23.842793 37,23.4292942 37,23 C37,20.790861 38.790861,19 41,19 C43.209139,19 45,20.790861 45,23 C45,25.209139 43.209139,27 41,27 C39.8796724,27 38.8669193,26.5394192 38.1407618,25.7972788 L27.7949237,31.7322305 C27.927949,32.1306075 28,32.5568896 28,33 C28,33.1690625 27.9895116,33.3356752 27.9691499,33.4992231 L37.852217,39.5316325 C38.5845231,38.5990624 39.7223023,38 41,38 C43.209139,38 45,39.790861 45,42 C45,44.209139 43.209139,46 41,46 C38.790861,46 37,44.209139 37,42 C37,41.748553 37.0232011,41.5025248 37.0675794,41.2639396 L27.250394,35.3318142 Z" id="Combined-Shape" fill="#FFFFFF"></path>
            </g>
        </g>
    </g>
</svg>